<svg id="gsmmaster_-_logo_-_blue" data-name="gsmmaster - logo - blue" xmlns="http://www.w3.org/2000/svg" width="259.234" height="52.629" viewBox="0 0 259.234 52.629">
  <path id="Path_4" data-name="Path 4" d="M22.993,22.993v6.644h6.644V26.209h2.739v6.167H20.253V20.253l18.9-.008V39.153H13.476V13.476H45.891V45.891H6.738V6.738L52.629,6.73h0v45.9H0V0H52.629V2.747H49.89V2.739H2.739V49.89H49.89V9.477H9.477V43.152H43.152V16.231l-26.937-.016v20.2h20.2V23.008Z" fill="#34509f"/>
  <path id="Path_5" data-name="Path 5" d="M49.89,11.347V51.76H2.739L.008,54.491,0,54.5H52.629V8.6" transform="translate(0 -1.87)" fill="#4ebde4"/>
  <path id="Path_6" data-name="Path 6" d="M45.031,19.975V46.9H11.356L8.64,49.635H47.77V17.22" transform="translate(-1.878 -3.744)" fill="#4ebde4"/>
  <path id="Path_7" data-name="Path 7" d="M40.16,28.633V42.038H19.953L17.23,44.777H42.9V25.87" transform="translate(-3.746 -5.624)" fill="#4ebde4"/>
  <path id="Path_8" data-name="Path 8" d="M35.263,36.918H28.619L25.88,39.657H38V33.49H36.069l-.806.008Z" transform="translate(-5.627 -7.281)" fill="#4ebde4"/>
  <path id="Path_9" data-name="Path 9" d="M332.342,389.477a4.862,4.862,0,0,1,3.514-1.956,2.051,2.051,0,0,1,1.518.532,1.565,1.565,0,0,1,.548,1.158c0,.9-.415,1.354-1.229,1.354a1.393,1.393,0,0,1-1.166-.837c-.3-.524-.61-.783-.939-.783a2.544,2.544,0,0,0-1.714,1.064,6.558,6.558,0,0,1,1.057,3.553,6.143,6.143,0,0,1-1.753,4.336q-1.761,1.9-5.924,2.043-4.328.141-4.336,1.761c0,.5.329.853.978,1.064a19.229,19.229,0,0,0,4.046.485,28.114,28.114,0,0,1,5.2.626,5.149,5.149,0,0,1,2.9,1.847,5.478,5.478,0,0,1-1.119,7.662,10.505,10.505,0,0,1-6.355,1.659,11.144,11.144,0,0,1-6.089-1.471,4.328,4.328,0,0,1-2.293-3.717,3.075,3.075,0,0,1,.657-2.043,2.254,2.254,0,0,1,1.855-.783,1.613,1.613,0,0,1,.595.1,4.3,4.3,0,0,0-1.268,2.943,3.506,3.506,0,0,0,1.69,2.974,8.818,8.818,0,0,0,5.032,1.174,7.826,7.826,0,0,0,4.649-1.2,3.623,3.623,0,0,0,1.667-3.052,3.013,3.013,0,0,0-1.495-2.88,13.217,13.217,0,0,0-5.306-.986c-2.935-.117-4.836-.485-5.705-1.08a2.653,2.653,0,0,1-1.307-2.269q0-2.676,3.741-3.373a8.764,8.764,0,0,1-2.927-2.614,5.854,5.854,0,0,1-.978-3.295,5.6,5.6,0,0,1,2.011-4.336,6.941,6.941,0,0,1,4.774-1.792A7.27,7.27,0,0,1,332.342,389.477Zm-9.2,4.461a5.737,5.737,0,0,0,1.08,3.858,3.537,3.537,0,0,0,2.763,1.229,3.482,3.482,0,0,0,2.661-1.221q1.119-1.205,1.119-4.218c0-2.019-.4-3.4-1.19-4.171a3.772,3.772,0,0,0-2.676-1.143,3.13,3.13,0,0,0-2.817,1.409,7.764,7.764,0,0,0-.931,4.257Z" transform="translate(-249.231 -370.804)" fill="#34509f"/>
  <path id="Path_10" data-name="Path 10" d="M344.91,405.286v-5.478h.783q1.385,4.766,4.969,4.766a2.81,2.81,0,0,0,2.348-.939,3.209,3.209,0,0,0,.783-2.066,2.934,2.934,0,0,0-.822-2.144,12.865,12.865,0,0,0-3.248-2.027,12.348,12.348,0,0,1-3.639-2.449,4.14,4.14,0,0,1-1.1-2.927,5.024,5.024,0,0,1,1.19-3.13,4,4,0,0,1,3.326-1.5,4.469,4.469,0,0,1,3.623,1.776,5.336,5.336,0,0,0,.783-1.487h.783v5.165H353.9a7.043,7.043,0,0,0-1.565-3.193,3.577,3.577,0,0,0-2.77-1.338,2.685,2.685,0,0,0-1.98.783,2.434,2.434,0,0,0-.783,1.761,2.551,2.551,0,0,0,.837,1.9,11.5,11.5,0,0,0,3.13,1.855q3.475,1.565,4.249,3.068a6.363,6.363,0,0,1,.783,2.9,4.7,4.7,0,0,1-1.44,3.553,5.032,5.032,0,0,1-3.623,1.37,5.478,5.478,0,0,1-4.109-1.9,4.625,4.625,0,0,0-.9,1.761Z" transform="translate(-254.826 -370.813)" fill="#34509f"/>
  <path id="Path_11" data-name="Path 11" d="M366.737,387.328h.2a8.844,8.844,0,0,1,.595,3.514,10.024,10.024,0,0,1,2.958-2.637,6.927,6.927,0,0,1,3.4-.876,5.571,5.571,0,0,1,3.357.939,4.938,4.938,0,0,1,1.792,2.825,11.9,11.9,0,0,1,3.193-2.825,6.6,6.6,0,0,1,3.326-.939,5.783,5.783,0,0,1,3.295.9,3.616,3.616,0,0,1,1.636,2.043,17.222,17.222,0,0,1,.282,3.7V399a29.306,29.306,0,0,0,.117,3.553,1.291,1.291,0,0,0,.65.947,4.54,4.54,0,0,0,2.011.305v.939h-8.358V403.8a4.234,4.234,0,0,0,1.839-.3,1.268,1.268,0,0,0,.665-.9A27.307,27.307,0,0,0,387.82,399v-5.58a12.181,12.181,0,0,0-.2-2.551,2.551,2.551,0,0,0-1.009-1.471,3.467,3.467,0,0,0-2.129-.61,4.79,4.79,0,0,0-2.669.892,11.519,11.519,0,0,0-2.684,2.723V399c0,1.784,0,2.9.07,3.365a1.456,1.456,0,0,0,.571,1.057,3.052,3.052,0,0,0,1.792.383v.939h-8.061V403.8a4.39,4.39,0,0,0,1.91-.29,1.26,1.26,0,0,0,.673-.877,26.934,26.934,0,0,0,.133-3.639v-4.641a20.449,20.449,0,0,0-.172-3.193,2.748,2.748,0,0,0-1.057-1.7,3.381,3.381,0,0,0-2.183-.7,4.915,4.915,0,0,0-2.583.783A11.54,11.54,0,0,0,367.536,392v6.965a29.681,29.681,0,0,0,.086,3.436,1.346,1.346,0,0,0,.61,1.017,3.663,3.663,0,0,0,1.9.352v.939H361.94v-.939a4.265,4.265,0,0,0,1.886-.3,1.252,1.252,0,0,0,.665-.892,27.2,27.2,0,0,0,.125-3.616v-5.009a27.537,27.537,0,0,0-.094-3.5,1.283,1.283,0,0,0-.634-.97,4.061,4.061,0,0,0-1.949-.329v-.939A22.7,22.7,0,0,0,366.737,387.328Z" transform="translate(-258.528 -370.8)" fill="#34509f"/>
  <path id="Path_12" data-name="Path 12" d="M423.015,387.328h.2a8.993,8.993,0,0,1,.587,3.514,10.026,10.026,0,0,1,2.958-2.637,6.981,6.981,0,0,1,3.4-.877,5.565,5.565,0,0,1,3.349.939,4.946,4.946,0,0,1,1.8,2.825,11.88,11.88,0,0,1,3.185-2.825,6.614,6.614,0,0,1,3.334-.939,5.768,5.768,0,0,1,3.287.9,3.616,3.616,0,0,1,1.636,2.043,17.217,17.217,0,0,1,.282,3.7V399a29.317,29.317,0,0,0,.117,3.553,1.291,1.291,0,0,0,.626.955,4.577,4.577,0,0,0,2.019.305v.939h-8.335v-.939a4.256,4.256,0,0,0,1.87-.3,1.26,1.26,0,0,0,.657-.9,27.291,27.291,0,0,0,.125-3.608v-5.58a12.176,12.176,0,0,0-.2-2.551,2.481,2.481,0,0,0-1.01-1.471,3.468,3.468,0,0,0-2.129-.61,4.767,4.767,0,0,0-2.661.892,11.537,11.537,0,0,0-2.692,2.723V399c0,1.784,0,2.9.07,3.365a1.44,1.44,0,0,0,.579,1.056,3.013,3.013,0,0,0,1.784.383v.939h-8.084v-.939a4.366,4.366,0,0,0,1.909-.29,1.26,1.26,0,0,0,.673-.876A25.578,25.578,0,0,0,432.5,399v-4.641a20.441,20.441,0,0,0-.172-3.193,2.77,2.77,0,0,0-1.049-1.7,3.389,3.389,0,0,0-2.191-.7,4.914,4.914,0,0,0-2.583.783,11.738,11.738,0,0,0-2.692,2.457v6.965a29.668,29.668,0,0,0,.086,3.436,1.346,1.346,0,0,0,.61,1.017,3.663,3.663,0,0,0,1.9.352v.939h-8.2v-.939a4.328,4.328,0,0,0,1.894-.3,1.245,1.245,0,0,0,.657-.892,27.211,27.211,0,0,0,.125-3.615v-5.009a27.526,27.526,0,0,0-.094-3.5,1.26,1.26,0,0,0-.634-.97,4.061,4.061,0,0,0-1.949-.329v-.939a22.772,22.772,0,0,0,4.805-.9Z" transform="translate(-270.762 -370.8)" fill="#4ebde4"/>
  <path id="Path_13" data-name="Path 13" d="M478.646,401.68h.783q-.172,3.5-3.428,3.5a3.13,3.13,0,0,1-2.2-.736,3.647,3.647,0,0,1-1.049-2.191,21.545,21.545,0,0,1-3.733,2.191,7.771,7.771,0,0,1-3.013.736,4.491,4.491,0,0,1-2.919-.986,3.13,3.13,0,0,1-1.229-2.59,4.555,4.555,0,0,1,2.05-3.678,25.355,25.355,0,0,1,5.674-3.068l3.169-1.291v-.783a9.984,9.984,0,0,0-.227-2.512,2.606,2.606,0,0,0-1.166-1.393,4.469,4.469,0,0,0-2.473-.61q-3.068,0-3.412,2.043c-.219,1.393-.783,2.082-1.714,2.082s-1.252-.391-1.252-1.182a3.55,3.55,0,0,1,1.659-2.5q1.655-1.338,5.149-1.338a8.138,8.138,0,0,1,4.023.822,4.2,4.2,0,0,1,1.894,1.855,8.383,8.383,0,0,1,.462,3.193V400a11.413,11.413,0,0,0,.243,3.044,1.017,1.017,0,0,0,1.064.673C477.871,403.684,478.4,403.019,478.646,401.68Zm-5.924-7.153-2.23.9q-5.275,2.144-5.275,5.392a3.131,3.131,0,0,0,.673,2.082,2.215,2.215,0,0,0,1.761.783,5.126,5.126,0,0,0,2.23-.634,16.29,16.29,0,0,0,2.841-1.9Z" transform="translate(-280.251 -370.807)" fill="#4ebde4"/>
  <path id="Path_14" data-name="Path 14" d="M487,405.286v-5.478h.783q1.385,4.766,4.962,4.766a2.817,2.817,0,0,0,2.348-.939,3.209,3.209,0,0,0,.783-2.066,2.935,2.935,0,0,0-.822-2.144,13.014,13.014,0,0,0-3.248-2.027,12.348,12.348,0,0,1-3.639-2.449,4.14,4.14,0,0,1-1.1-2.927,5.024,5.024,0,0,1,1.189-3.13,4,4,0,0,1,3.326-1.5,4.469,4.469,0,0,1,3.623,1.776,5.18,5.18,0,0,0,.783-1.487h.783v5.165h-.783a6.988,6.988,0,0,0-1.565-3.193,3.576,3.576,0,0,0-2.77-1.338,2.684,2.684,0,0,0-1.98.783,2.4,2.4,0,0,0-.783,1.761,2.551,2.551,0,0,0,.837,1.9,11.5,11.5,0,0,0,3.13,1.855q3.475,1.565,4.25,3.068a6.363,6.363,0,0,1,.782,2.9,4.7,4.7,0,0,1-1.44,3.553,5.04,5.04,0,0,1-3.623,1.37,5.478,5.478,0,0,1-4.109-1.9,4.515,4.515,0,0,0-.9,1.761Z" transform="translate(-285.717 -370.813)" fill="#4ebde4"/>
  <path id="Path_15" data-name="Path 15" d="M514.432,387.67h-5.048v10.119a15.734,15.734,0,0,0,.2,3.13,2.3,2.3,0,0,0,.869,1.3,2.387,2.387,0,0,0,1.424.485,3.06,3.06,0,0,0,2.551-1.675l.657.391a4.422,4.422,0,0,1-1.87,2.035,5.132,5.132,0,0,1-2.5.681,4.084,4.084,0,0,1-2.583-.869,3.663,3.663,0,0,1-1.393-2.035,20.721,20.721,0,0,1-.274-4.085V387.67H504v-.939a4.21,4.21,0,0,0,3.005-1.409,6.839,6.839,0,0,0,1.7-3.842h.65v5.251H514.4Z" transform="translate(-289.413 -369.53)" fill="#4ebde4"/>
  <path id="Path_16" data-name="Path 16" d="M535.391,393.666H523.723c-.055.783-.086,1.4-.086,1.792q0,4.414,1.377,6.636a4.539,4.539,0,0,0,4.124,2.215,5.384,5.384,0,0,0,5.267-3.334h.986a5.737,5.737,0,0,1-2.6,3.263,8.139,8.139,0,0,1-8.248.1,8.506,8.506,0,0,1-3.13-3.036,8.9,8.9,0,0,1-1.205-4.758,9.563,9.563,0,0,1,2.348-6.589,7.474,7.474,0,0,1,5.83-2.63,6.472,6.472,0,0,1,5.087,2A6.871,6.871,0,0,1,535.391,393.666Zm-3.608-.822a6.965,6.965,0,0,0,.063-.837,3.522,3.522,0,0,0-3.639-3.78q-3.725,0-4.437,4.617Z" transform="translate(-292.936 -370.798)" fill="#4ebde4"/>
  <path id="Path_17" data-name="Path 17" d="M548.972,391.6a6.933,6.933,0,0,1,2.254-3.044,4.977,4.977,0,0,1,3.06-1.229,2.755,2.755,0,0,1,2.121.837,2.559,2.559,0,0,1,.783,1.714,1.455,1.455,0,0,1-.4,1.025,1.275,1.275,0,0,1-.97.43c-.689,0-1.205-.509-1.565-1.51-.243-.681-.61-1.025-1.1-1.025a3.381,3.381,0,0,0-2.105,1.2,5.58,5.58,0,0,0-1.565,2.481,14.088,14.088,0,0,0-.344,3.537V399c0,1.784,0,2.911.07,3.373a1.44,1.44,0,0,0,.579,1.064,3.31,3.31,0,0,0,1.823.368h.571v.939h-8.89V403.8h.43a3.412,3.412,0,0,0,1.745-.337,1.385,1.385,0,0,0,.626-.955,34.51,34.51,0,0,0,.1-3.514v-4.7q0-2.7-.07-3.381a1.448,1.448,0,0,0-.587-1.064,3.2,3.2,0,0,0-1.816-.376h-.43v-.923a28.261,28.261,0,0,0,5.024-1.205A13.46,13.46,0,0,1,548.972,391.6Z" transform="translate(-297.955 -370.801)" fill="#4ebde4"/>
  <text id="Together_let_s_be_the_future" data-name="Together, let&apos;s be the future" transform="translate(104.813 42.278)" fill="#575756" font-size="8" font-family="Lato" font-weight="300" letter-spacing="-0.02em"><tspan x="0" y="0">T</tspan><tspan y="0" letter-spacing="0.1em">ogethe</tspan><tspan y="0" letter-spacing="0.06em">r</tspan><tspan y="0" letter-spacing="0.1em">, let&apos;s be the futu</tspan><tspan y="0" letter-spacing="0.08em">r</tspan><tspan y="0" letter-spacing="0.1em">e</tspan></text>
</svg>
